<svg width="19" height="20" viewBox="0 0 19 20" fill="none" xmlns="http://www.w3.org/2000/svg">
<path d="M18.9947 18.9718L16.8978 3.82494C16.8596 3.54834 16.6231 3.34249 16.3438 3.34249H15.44C15.4395 1.83286 14.2114 0.604926 12.7017 0.604926C11.5995 0.604926 10.6498 1.26091 10.216 2.2017C9.76883 1.13991 8.71781 0.392395 7.49524 0.392395C5.8684 0.392395 4.54495 1.71577 4.54443 3.34245H2.65616C2.37694 3.34245 2.14043 3.54827 2.10218 3.8249L0.00528533 18.9718C-0.0168947 19.1319 0.031406 19.2938 0.13754 19.4157C0.243824 19.5377 0.397508 19.6076 0.559261 19.6076H18.4407C18.6025 19.6076 18.7562 19.5377 18.8625 19.4156C18.9686 19.2938 19.0169 19.1319 18.9947 18.9718ZM12.7017 1.80073C13.552 1.80073 14.2436 2.49237 14.2441 3.34249H11.1593C11.1599 2.49233 11.8515 1.80073 12.7017 1.80073ZM7.49524 1.51082C8.50535 1.51082 9.3271 2.33234 9.32763 3.34249H5.66289C5.66338 2.33234 6.48513 1.51082 7.49524 1.51082ZM1.20124 18.4892L3.14326 4.46092H4.54443V5.94458C4.54443 6.25333 4.79475 6.50366 5.10366 6.50366C5.41253 6.50366 5.66289 6.25333 5.66289 5.94458V4.46092H9.32763V5.94458C9.32763 6.25333 9.57795 6.50366 9.88686 6.50366C10.1958 6.50366 10.4461 6.25333 10.4461 5.94458V4.46092H13.0772L11.1352 18.4892H1.20124ZM13.2171 18.4892L15.0409 16.4395L17.0906 18.4892H13.2171ZM15.5907 15.4074V11.9917C15.5907 11.6829 15.3404 11.4325 15.0315 11.4325C14.7226 11.4325 14.4722 11.6829 14.4722 11.9917V15.3961L12.3646 17.7649L14.2064 4.46092H15.8568L17.6584 17.4751L15.5907 15.4074Z" fill="black"/>
<path d="M15.0315 9.06586C14.7226 9.06586 14.4722 9.31618 14.4722 9.62509V10.1483C14.4722 10.4572 14.7226 10.7075 15.0315 10.7075C15.3403 10.7075 15.5907 10.4572 15.5907 10.1483V9.62509C15.5907 9.31622 15.3404 9.06586 15.0315 9.06586Z" fill="black"/>
</svg>
