<svg width="24" height="24" viewBox="0 0 24 24" fill="none" xmlns="http://www.w3.org/2000/svg">
<g clip-path="url(#clip0_433_130)">
<path d="M7.76121 24C6.1943 23.9986 4.92445 22.7288 4.92305 21.162V20.3077H2.15506C2.15271 20.3077 2.14992 20.3077 2.14713 20.3077C1.37867 20.3077 0.70486 19.9025 0.327704 19.2941L0.322431 19.2849C0.120446 18.9644 0.000610352 18.5745 0.000610352 18.1565C0.000610352 17.805 0.0854307 17.4732 0.235735 17.1806L0.23011 17.1926L1.27995 15.0917C1.54538 14.5705 1.70124 13.9552 1.7021 13.3036V4.61907C1.70489 2.75091 3.21858 1.23725 5.08645 1.23446H6.62147V0.92799C6.62147 0.417498 7.03531 0.00368555 7.54577 0.00368555C8.05559 0.00368555 8.46886 0.416959 8.46886 0.926772V0.928061V0.92799V1.23446H14.0073V0.92799C14.0073 0.927615 14.0073 0.927193 14.0073 0.926748C14.0073 0.416936 14.4206 0.00366211 14.9304 0.00366211H14.9317C15.4415 0.00366211 15.8547 0.416936 15.8547 0.926748V0.928037V0.927967V1.23444H17.3969C19.2651 1.23722 20.7787 2.75091 20.7815 4.61879V6.15751H21.1631C22.73 6.15891 23.9998 7.42876 24.0012 8.99553V21.1667C23.9956 22.7305 22.7274 23.9961 21.1632 23.9975H21.1631L7.76121 24ZM6.77044 21.1618C6.77114 21.7088 7.2143 22.1519 7.76114 22.1526H21.1618C21.7071 22.1526 22.1497 21.7127 22.1538 21.1684V8.99694C22.1531 8.44934 21.7094 8.00565 21.1619 8.00494H20.7803V14.2043V14.206C20.7803 15.4145 20.4124 16.5371 19.7826 17.468L19.7957 17.4474L18.8923 18.8013C18.2784 19.7161 17.248 20.3102 16.0789 20.3102C16.0775 20.3102 16.0762 20.3102 16.0748 20.3102H6.76676L6.77044 21.1618ZM16.0787 18.4615H16.0823C16.6129 18.4615 17.0805 18.1916 17.3552 17.7815L17.3587 17.776L18.2621 16.4221C18.6829 15.7998 18.9339 15.0326 18.9341 14.2068V4.62153C18.9334 3.77213 18.245 3.08377 17.3957 3.08307H15.8535V3.39076C15.8535 3.90057 15.4402 4.31384 14.9304 4.31384C14.93 4.31384 14.9295 4.31384 14.9291 4.31384H14.9292C14.4194 4.31384 14.0061 3.90057 14.0061 3.39076V3.08307H8.46764V3.39076C8.46764 3.90057 8.05437 4.31384 7.54456 4.31384C7.03451 4.31384 6.62095 3.90071 6.62025 3.39083V3.08307H5.08549C4.23609 3.08377 3.54774 3.77215 3.54703 4.62146V13.3058C3.54579 14.2581 3.31859 15.1571 2.91621 15.9524L2.93166 15.9188L1.87936 18.0221C1.85791 18.0621 1.84533 18.1096 1.84533 18.1601C1.84533 18.22 1.86307 18.2757 1.89359 18.3223L1.89288 18.3212C1.94564 18.4095 2.04073 18.4677 2.14941 18.4677C2.15095 18.4677 2.1525 18.4677 2.15405 18.4677H16.0763L16.0787 18.4615ZM7.31199 14.1538C7.31161 14.1538 7.31119 14.1538 7.31074 14.1538C6.80093 14.1538 6.38766 13.7406 6.38766 13.2308C6.38766 12.7203 6.80149 12.3065 7.31196 12.3065H14.6966C15.2071 12.3065 15.6209 12.7203 15.6209 13.2308C15.6209 13.7406 15.2076 14.1538 14.6978 14.1538C14.6974 14.1538 14.6969 14.1538 14.6965 14.1538H14.6966H7.31199ZM7.31199 9.23077C7.31161 9.23077 7.31119 9.23077 7.31074 9.23077C6.80093 9.23077 6.38766 8.8175 6.38766 8.30769C6.38766 8.30726 6.38766 8.30682 6.38766 8.3064V8.30647C6.38766 7.79665 6.80093 7.38338 7.31074 7.38338H7.31203H14.6966H14.6978C15.2076 7.38338 15.6209 7.79665 15.6209 8.30647V8.30771C15.6209 8.81752 15.2076 9.23079 14.6978 9.23079C14.6974 9.23079 14.697 9.23079 14.6965 9.23079H14.6966L7.31199 9.23077Z" fill="#121619"/>
</g>
<defs>
<clipPath id="clip0_433_130">
<rect width="24" height="24" fill="white"/>
</clipPath>
</defs>
</svg>
