<svg width="24" height="24" viewBox="0 0 24 24" fill="none" xmlns="http://www.w3.org/2000/svg">
<g clip-path="url(#clip0_433_127)">
<path d="M23 4H1C0.734784 4 0.48043 4.10536 0.292893 4.29289C0.105357 4.48043 0 4.73478 0 5L0 6.5C0 6.76522 0.105357 7.01957 0.292893 7.20711C0.48043 7.39464 0.734784 7.5 1 7.5H1.5V19C1.5 19.2652 1.60536 19.5196 1.79289 19.7071C1.98043 19.8946 2.23478 20 2.5 20H3.05C3.29619 20.0002 3.53379 19.9095 3.71729 19.7454C3.90079 19.5812 4.0173 19.3552 4.0445 19.1105L4.95 11H19.05L19.95 19.11C19.9772 19.3557 20.0944 19.5827 20.2791 19.747C20.4638 19.9114 20.7028 20.0015 20.95 20H21.5C21.7652 20 22.0196 19.8946 22.2071 19.7071C22.3946 19.5196 22.5 19.2652 22.5 19V7.5H23C23.2652 7.5 23.5196 7.39464 23.7071 7.20711C23.8946 7.01957 24 6.76522 24 6.5V5C24 4.73478 23.8946 4.48043 23.7071 4.29289C23.5196 4.10536 23.2652 4 23 4ZM21.5 19H20.95L20 10.445C19.9864 10.3221 19.9278 10.2087 19.8354 10.1265C19.7431 10.0443 19.6236 9.99925 19.5 10H4.5C4.37691 9.99999 4.25814 10.0454 4.16644 10.1275C4.07473 10.2096 4.01654 10.3227 4.003 10.445L3.05 19H2.5V7.5H21.5V19ZM1 6.5V5H23V6.5H1Z" fill="#121619"/>
</g>
<defs>
<clipPath id="clip0_433_127">
<rect width="24" height="24" fill="white"/>
</clipPath>
</defs>
</svg>
